<?xml version="1.0" encoding="UTF-8" standalone="no"?>
<!-- Created with Inkscape (http://www.inkscape.org/) -->

<svg
   xmlns:dc="http://purl.org/dc/elements/1.1/"
   xmlns:cc="http://creativecommons.org/ns#"
   xmlns:rdf="http://www.w3.org/1999/02/22-rdf-syntax-ns#"
   xmlns:svg="http://www.w3.org/2000/svg"
   xmlns="http://www.w3.org/2000/svg"
   xmlns:sodipodi="http://sodipodi.sourceforge.net/DTD/sodipodi-0.dtd"
   xmlns:inkscape="http://www.inkscape.org/namespaces/inkscape"
   sodipodi:docname="boundaries.svg"
   inkscape:version="0.48.3.1 r9886"
   version="1.1"
   id="svg2"
   height="1052.3622047"
   width="744.09448819">
  <sodipodi:namedview
     id="base"
     pagecolor="#ffffff"
     bordercolor="#666666"
     borderopacity="1.0"
     inkscape:pageopacity="0.0"
     inkscape:pageshadow="2"
     inkscape:zoom="0.175"
     inkscape:cx="-888.48458"
     inkscape:cy="886.02185"
     inkscape:document-units="px"
     inkscape:current-layer="svg2"
     showgrid="false"
     inkscape:window-width="1090"
     inkscape:window-height="540"
     inkscape:window-x="102"
     inkscape:window-y="62"
     inkscape:window-maximized="0" />
  <defs
     id="defs4" />
  <metadata
     id="metadata7">
    <rdf:RDF>
      <cc:Work
         rdf:about="">
        <dc:format>image/svg+xml</dc:format>
        <dc:type
           rdf:resource="http://purl.org/dc/dcmitype/StillImage" />
        <dc:title />
      </cc:Work>
    </rdf:RDF>
  </metadata>
  <g
     id="layer1"
     inkscape:groupmode="layer"
     inkscape:label="Layer 1">
    <path
       transform="matrix(0.86619731,0,0,0.97041594,-664.73765,-71.654239)"
       d="m 325.71429,550.93359 a 265.71429,244.28572 0 1 1 -531.42858,0 265.71429,244.28572 0 1 1 531.42858,0 z"
       sodipodi:ry="244.28572"
       sodipodi:rx="265.71429"
       sodipodi:cy="550.93359"
       sodipodi:cx="60"
       id="path3765"
       style="opacity:0.78829262;fill:#000000;fill-opacity:1;fill-rule:nonzero;stroke:none"
       sodipodi:type="arc" />
    <path
       inkscape:connector-curvature="0"
       d="m 82.47577,267.10052 c 3.67604,-4.96865 7.35465,-9.93493 10.75403,-14.99347 4.7848,-7.1731 11.8744,-13.479 17.76527,-20.23705 5.93683,-6.12395 11.82872,-12.2687 17.91843,-18.3204 7.11853,-6.49527 14.30293,-12.83772 22.96597,-18.45424 9.54244,-5.74311 21.50515,-8.91141 33.68208,-11.23034 8.74519,-1.95295 17.95491,-3.31671 26.39374,-5.82945 9.01069,-2.87773 18.7202,-4.12278 28.57364,-4.79784 11.27729,-0.62814 22.48433,-0.56652 33.67522,0.53887 11.7989,1.10248 23.18251,3.51565 34.21202,6.45697 10.29179,2.46486 19.44973,6.50719 29.01495,9.95677 11.29332,3.91193 20.96341,9.27905 29.61363,15.44605 7.53404,5.57179 14.80838,11.31731 21.13121,17.52865 6.99988,7.21955 9.87574,15.44241 11.31579,23.86359 0.86361,6.88059 0.72718,13.79418 0.7023,20.69245 -0.66382,5.53025 0.28483,10.84857 1.61002,16.27634 1.96745,6.20911 0.18121,12.46417 -0.77331,18.66623 -0.70494,5.08735 -0.81471,10.19932 -0.90711,15.30448 -1.21014,5.92581 -2.6856,11.86627 -4.60885,17.71129 -3.16084,7.48471 -8.5217,14.11293 -15.46093,20.30743 -5.9343,3.98395 -10.87028,8.4984 -16.0774,12.89664 -6.2107,4.58969 -14.06361,7.94354 -21.158,11.88019 -5.74318,4.44072 -13.30394,7.2711 -20.58328,10.37324 -5.52527,1.86589 -10.14983,4.54717 -14.79535,7.21424 -4.62347,3.62251 -10.08747,6.6518 -14.8294,10.20122 -7.43856,6.46465 -17.68847,10.90431 -27.29082,15.7704 -10.1528,4.43059 -19.62074,9.47929 -29.31475,14.3331 -10.01121,5.11442 -19.63404,10.53882 -29.32316,15.91976 -9.88989,4.3609 -18.52783,9.49796 -26.70796,15.18021 -7.86708,5.94924 -16.63747,11.29356 -24.90398,16.97997 -6.09159,4.55477 -13.52778,8.53772 -17.91989,13.97803 -5.40182,6.47784 -11.14947,12.81378 -16.76811,19.20585 -5.11868,4.8315 -9.5119,9.97895 -13.87319,15.1269 -4.80233,4.93662 -8.43658,10.25461 -12.01593,15.60802 -2.969,4.15001 -3.96062,8.63464 -4.54259,13.16368 -1.43609,5.03584 -3.31888,9.9659 -4.06837,15.07567 -0.59429,5.15112 -0.60081,10.32193 -0.63493,15.48512 0.57038,7.07768 -0.48564,13.95639 -3.20121,20.79532 -3.07113,5.32128 -3.99584,10.9737 -5.73505,16.50723 -1.26509,6.72805 -5.74296,12.61994 -9.91386,18.67795 -2.53762,5.67527 -6.48137,11.05457 -10.67462,16.26659 -3.25543,4.71803 -7.23905,9.10923 -11.59556,13.40518 -5.727756,5.76939 -14.216398,9.88504 -23.156336,13.18905 -7.606406,3.61594 -16.563276,5.14293 -25.633889,6.09404 -9.213558,0.73026 -18.508426,0.70991 -27.771916,0.72481 -8.666714,-0.006 -17.333411,-0.0266 -26.000108,-0.0374 -8.619463,-0.01 -17.238957,-0.0106 -25.858455,-0.0115 -12.107151,-0.28443 -22.347336,-3.39068 -31.446206,-8.55496 -5.74917,-4.2492 -11.32033,-8.43352 -17.91192,-12.12216 -6.17446,-3.81973 -12.47037,-7.52346 -18.13641,-11.68865 -7.75236,-6.14756 -11.07639,-13.90676 -13.94827,-21.5511 -2.39508,-7.36159 -4.84363,-14.6906 -6.33601,-22.16402 -2.27451,-6.12444 -3.88678,-12.32095 -4.86589,-18.59375 -0.85444,-6.86384 -0.84836,-13.75931 -0.88691,-20.64197 0.74916,-6.48361 2.74475,-12.84817 3.64191,-19.32273 0.83033,-6.31374 2.9461,-12.49618 3.96919,-18.80367 1.71241,-7.0752 6.22347,-13.67806 11.04418,-20.0227 4.24591,-5.00006 6.92989,-10.48316 10.71276,-15.65828 5.07957,-5.30445 8.61456,-11.14471 13.13455,-16.64855 5.35888,-5.81585 11.56839,-11.17661 18.6537,-16.09023 4.15153,-3.57366 8.05317,-7.24457 12.73416,-10.55867 4.117457,-2.77681 8.359205,-5.9251 10.727592,-9.55381 4.588971,-5.41596 9.466015,-10.71829 14.286984,-16.04381 4.04375,-5.30396 10.174836,-9.66524 15.353892,-14.45722 5.347235,-5.43103 12.391623,-10.15958 17.190703,-15.82385 4.42315,-5.38585 8.887783,-10.75372 13.58873,-16.04033 5.72331,-6.16869 13.130423,-11.51218 18.979988,-17.62178 4.840297,-5.62139 10.576799,-10.82332 16.255982,-16.07428 5.452288,-4.58536 9.570921,-9.80738 13.819515,-14.91569 4.733343,-5.54062 9.221096,-11.15584 14.0602,-16.65602 5.708453,-6.01442 11.534972,-11.98816 18.043394,-17.63311 3.56093,-4.50226 10.97902,-7.29481 13.72222,-12.08073 2.56666,-4.40193 6.80759,-8.35343 8.76015,-12.9082 3.11004,-4.4223 4.94143,-9.11821 7.578,-13.65977 2.71615,-4.0583 4.88421,-8.20163 7.06831,-12.3945 0.37712,-0.75897 0.75423,-1.51793 1.13133,-2.2769 8.67133,-17.39246 45.49569,-9.20138 36.82435,8.19108 l 0,0 c -0.45885,0.91779 -0.91771,1.83555 -1.37658,2.75333 -2.41987,4.40418 -4.77381,8.79102 -7.46051,13.1003 -2.37398,4.08873 -3.91291,8.3689 -6.8602,12.3146 -2.90477,5.69191 -7.15514,10.92668 -10.8838,16.38532 -4.82593,6.13783 -11.53201,11.04914 -17.84798,16.4758 -5.57188,4.73464 -10.359,9.8383 -15.25265,14.88606 -4.7061,5.33039 -9.03137,10.78893 -13.63596,16.1624 -5.02103,5.96109 -9.876516,12.05811 -16.231999,17.44093 -5.322556,4.91756 -10.741935,9.74206 -15.197883,15.045 -5.691125,5.76318 -12.265243,11.06558 -18.148749,16.731 -4.762597,5.3244 -9.208775,10.75342 -13.708682,16.17395 -5.745689,6.18244 -12.685261,11.80328 -19.057919,17.70032 -4.646766,4.22646 -10.030836,8.07412 -13.645649,12.75507 -4.476773,4.72755 -8.646705,9.60898 -12.911488,14.42053 -4.608693,5.65813 -10.183817,11.08144 -17.170057,15.55638 -4.935974,3.31129 -8.142599,7.55328 -13.150736,10.84409 -4.948939,3.11221 -8.597542,6.89609 -12.446088,10.60508 -4.48514,4.95831 -7.09371,10.64163 -12.14735,15.40361 -3.95595,5.20808 -6.39742,10.85825 -10.88185,15.88353 -2.72892,3.59155 -5.4339,7.25407 -7.07489,11.12589 -1.03011,6.17504 -2.98352,12.24068 -3.90799,18.40392 -0.80774,5.63018 -2.04288,11.2162 -3.47045,16.79073 0.0331,6.03736 0.0144,12.08533 0.68715,18.10924 0.89195,6.03382 2.84511,11.9209 4.73516,17.84508 1.25851,6.52619 3.50994,12.90513 5.53889,19.33702 1.26045,3.51013 2.54081,7.1857 5.06696,10.37882 4.52082,3.37325 9.68385,6.26925 14.59372,9.3828 6.64109,3.85357 12.99742,7.90544 18.511848,12.47288 1.464213,1.14522 2.359276,1.57135 5.591564,1.96199 8.641642,8e-4 17.283295,0.002 25.924917,0.0116 8.612391,0.0108 17.224748,0.0318 25.837138,0.0374 7.403034,-0.0111 14.826238,0.0195 22.20367,-0.44788 5.077705,-0.43085 9.163546,-1.27782 13.357318,-3.43709 3.626837,-0.87953 6.792791,-2.76836 9.006268,-4.78565 3.717392,-3.63498 7.0042,-7.35604 9.745265,-11.39914 4.148893,-4.6204 6.770833,-9.60756 9.439006,-14.64852 3.099743,-4.39459 6.530333,-8.27536 7.177548,-13.28038 2.155493,-6.0083 2.825717,-12.27749 6.328708,-18.07603 2.34246,-4.45403 1.66591,-9.12868 1.70295,-13.77689 0.0408,-6.00738 0.0694,-12.0242 0.83709,-18.01422 0.79001,-4.99273 1.94431,-9.95562 4.02694,-14.79021 1.04852,-7.36256 3.0344,-14.64197 7.76891,-21.39628 4.11275,-6.11956 8.31144,-12.19989 13.73541,-17.86995 4.49678,-5.22733 8.88667,-10.53021 14.14171,-15.43604 5.74731,-6.49323 11.53736,-12.96265 17.06955,-19.54167 6.54958,-6.85959 14.53625,-12.85974 23.23073,-18.55285 8.23668,-5.65 16.94575,-10.97365 24.77598,-16.89168 9.16323,-6.34386 18.78987,-12.26207 29.84716,-17.12909 10.18948,-5.65862 20.32378,-11.355 30.85707,-16.72885 9.63687,-4.82512 19.03855,-9.86225 29.14838,-14.24934 7.67939,-3.88516 15.9956,-7.20968 21.85028,-12.42534 5.90974,-4.38034 12.48447,-8.26976 18.4882,-12.58764 6.15785,-3.49352 12.37176,-6.96148 19.5321,-9.5302 5.9256,-2.42542 11.73157,-4.68948 16.32588,-8.32667 5.08478,-2.79792 10.28602,-5.55155 15.56755,-8.07831 5.02613,-4.18203 9.64834,-8.63867 15.45188,-12.35864 0.74247,-0.64597 4.24172,-3.28302 4.60773,-3.80687 1.53603,-2.19855 2.17105,-4.68576 4.03336,-6.79764 1.62845,-3.95646 1.73213,-8.16352 3.58351,-12.10021 0.1088,-5.89097 0.26422,-11.78904 1.11055,-17.65756 0.61183,-3.92364 2.11199,-7.91976 1.0726,-11.8254 -1.66125,-6.80956 -2.74179,-13.59626 -2.11554,-20.51028 0.0219,-5.94012 0.14767,-11.8915 -0.47399,-17.82095 -0.64155,-4.26247 -1.61664,-8.5127 -4.98512,-12.25122 -5.01852,-5.14655 -11.29947,-9.68806 -17.32115,-14.31041 -5.70699,-4.16197 -12.12149,-7.72793 -19.70747,-10.30851 -8.27519,-3.02031 -16.21169,-6.53861 -25.10307,-8.7198 -8.13787,-2.27936 -16.6645,-3.9875 -25.40702,-4.83914 -7.9975,-0.84006 -15.98913,-0.75617 -24.07247,-0.36911 -6.13676,0.37075 -12.06154,1.07337 -17.6173,2.97931 -10.11667,2.67259 -20.54559,4.81661 -30.97998,6.86876 -5.94177,0.95407 -11.97343,2.47161 -16.91928,4.88672 -6.84449,4.34574 -12.185,9.43908 -17.88592,14.45112 -5.80401,5.42281 -10.81994,11.26424 -16.44938,16.77755 -5.2629,5.94417 -11.37951,11.56258 -15.87028,17.79449 -2.25948,3.3137 -6.56064,10.69642 -9.65023,13.43551 -0.28947,0.25663 0.23847,-0.62256 0.3577,-0.93384 -8.67876,17.3908 -45.49962,9.1927 -36.82085,-8.1981 z"
       id="path3779"
       style="opacity:0.78829262;fill:#000000;fill-opacity:1;fill-rule:nonzero;stroke:none" />
  </g>
  <text
     xml:space="preserve"
     style="font-size:129.32952881px;font-style:normal;font-weight:normal;line-height:125%;letter-spacing:0px;word-spacing:0px;fill:#000000;fill-opacity:1;stroke:none;font-family:Bitstream Vera Sans"
     x="-912.74963"
     y="767.37457"
     id="text2998"
     sodipodi:linespacing="125%"
     transform="scale(1.0961879,0.91225236)"><tspan
       sodipodi:role="line"
       id="tspan3000"
       x="-912.74963"
       y="767.37457">A</tspan></text>
  <text
     xml:space="preserve"
     style="font-size:129.32952881px;font-style:normal;font-weight:normal;line-height:125%;letter-spacing:0px;word-spacing:0px;fill:#000000;fill-opacity:1;stroke:none;font-family:Bitstream Vera Sans"
     x="127.65385"
     y="767.37457"
     id="text3002"
     sodipodi:linespacing="125%"
     transform="scale(1.0961879,0.91225236)"><tspan
       sodipodi:role="line"
       id="tspan3004"
       x="127.65385"
       y="767.37457">B</tspan></text>
</svg>
